<svg xmlns="http://www.w3.org/2000/svg" viewBox="0 0 512 512" fill="none" shape-rendering="geometricPrecision">
  <defs>
    <linearGradient id="bg" x1="0" y1="0" x2="0" y2="1">
      <stop offset="0" stop-color="#2a8a85"></stop>
      <stop offset="1" stop-color="#0c3a37"></stop>
    </linearGradient>
    <radialGradient id="glow" cx="30%" cy="22%" r="75%">
      <stop offset="0" stop-color="#7fd9d2" stop-opacity="0.42"></stop>
      <stop offset="1" stop-color="#7fd9d2" stop-opacity="0"></stop>
    </radialGradient>
    <linearGradient id="xbeam" x1="0" y1="0" x2="1" y2="1">
      <stop offset="0" stop-color="#ffffff"></stop>
      <stop offset="0.5" stop-color="#d9fbf5"></stop>
      <stop offset="1" stop-color="#5eead4"></stop>
    </linearGradient>
  </defs>
  <rect width="512" height="512" rx="104" fill="url(#bg)"></rect>
  <rect width="512" height="512" rx="104" fill="url(#glow)"></rect>
  <g stroke="#b5ece6" stroke-opacity="0.09" stroke-width="1.5">
    <path d="M64 64V448M128 64V448M192 64V448M256 64V448M320 64V448M384 64V448M448 64V448"></path>
    <path d="M64 64H448M64 128H448M64 192H448M64 256H448M64 320H448M64 384H448M64 448H448"></path>
  </g>

  
  <path d="M150 360 Q256 300 372 156" fill="none" stroke="#5fe0d0" stroke-width="13" stroke-linecap="round" opacity="0.7"></path>

  
  <path d="M150 150 L362 362 M362 150 L150 362" stroke="#08332f" stroke-width="54" stroke-linecap="round" opacity="0.45"></path>
  <path d="M156 152 L362 358 M356 152 L150 358" stroke="url(#xbeam)" stroke-width="36" stroke-linecap="round"></path>

  
  <circle cx="192" cy="326" r="13" fill="#ffc266" stroke="#08332f" stroke-width="5"></circle>
  <circle cx="330" cy="186" r="13" fill="#67e8f9" stroke="#08332f" stroke-width="5"></circle>

  
  <circle cx="256" cy="256" r="22" fill="#ff8a3d" stroke="#08332f" stroke-width="7"></circle>
  <circle cx="256" cy="256" r="7" fill="#08332f"></circle>

  
  <path d="M256 78 L274 94 L256 110 L238 94 Z" fill="#5eead4" stroke="#08332f" stroke-width="4"></path>
</svg>