<svg xmlns="http://www.w3.org/2000/svg" viewBox="0 0 64 64" role="img" aria-label="PlanX">
  <defs>
    <linearGradient id="bg" x1="7" y1="6" x2="57" y2="58" gradientUnits="userSpaceOnUse">
      <stop offset="0" stop-color="#07111c"/>
      <stop offset="0.56" stop-color="#12343b"/>
      <stop offset="1" stop-color="#0f766e"/>
    </linearGradient>
    <linearGradient id="xA" x1="16" y1="14" x2="50" y2="52" gradientUnits="userSpaceOnUse">
      <stop offset="0" stop-color="#f8fafc"/>
      <stop offset="0.5" stop-color="#d9fbf5"/>
      <stop offset="1" stop-color="#5eead4"/>
    </linearGradient>
    <filter id="shadow" x="-20%" y="-20%" width="140%" height="140%">
      <feDropShadow dx="0" dy="2" stdDeviation="2" flood-color="#020617" flood-opacity="0.32"/>
    </filter>
  </defs>
  <rect x="3" y="3" width="58" height="58" rx="15" fill="url(#bg)"/>
  <path d="M13 42 22.5 32 13 22m38 20L41.5 32 51 22" fill="none" stroke="#e0f2fe" stroke-width="2" stroke-linecap="round" opacity=".42"/>
  <path d="M16 49c9-15 22-21 36-28" fill="none" stroke="#5eead4" stroke-width="4.5" stroke-linecap="round" opacity=".72"/>
  <path d="M16.5 15.5 48.5 48.5M48.5 15.5 16.5 48.5" stroke="#0f172a" stroke-width="10" stroke-linecap="round" opacity=".38"/>
  <path d="M18 15 49 46M46 17 18 46" stroke="url(#xA)" stroke-width="6.4" stroke-linecap="round" filter="url(#shadow)"/>
  <circle cx="22" cy="41" r="2.9" fill="#ecfeff"/>
  <circle cx="33" cy="32" r="3.2" fill="#0f172a"/>
  <circle cx="44" cy="23" r="2.9" fill="#ecfeff"/>
  <path d="M32 8.5 36.2 11 32 13.5 27.8 11Z" fill="#5eead4"/>
</svg>
